<svg width="687" height="406" viewBox="0 0 687 406" fill="none" xmlns="http://www.w3.org/2000/svg">
<g clip-path="url(#clip0_1_42)">
<path d="M673.847 403.858H176.187C168.672 403.858 162.565 397.751 162.565 390.236V110.217C162.565 102.702 168.672 96.5948 176.187 96.5948H673.847C681.362 96.5948 687.469 102.702 687.469 110.217V390.236C687.469 397.751 681.362 403.858 673.847 403.858ZM176.187 105.462C173.56 105.462 171.432 107.59 171.432 110.217V390.236C171.432 392.863 173.56 394.991 176.187 394.991H673.847C676.474 394.991 678.602 392.863 678.602 390.236V110.217C678.602 107.59 676.474 105.462 673.847 105.462H176.187Z" fill="#D5D5D6"/>
<path d="M300.857 233.701H276.85V294.75H300.857V233.701Z" fill="#480C6D"/>
<path d="M339.761 227.837H315.754V294.75H339.761V227.837Z" fill="#480C6D"/>
<path d="M378.665 250.736H354.658V294.75H378.665V250.736Z" fill="#480C6D"/>
<path d="M417.569 237.148H393.562V294.75H417.569V237.148Z" fill="#480C6D"/>
<path d="M456.473 248.786H432.466V294.739H456.473V248.786Z" fill="#480C6D"/>
<path d="M495.377 214.493H471.369V294.75H495.377V214.493Z" fill="#480C6D"/>
<path d="M534.281 227.837H510.273V294.75H534.281V227.837Z" fill="#480C6D"/>
<path d="M573.185 216.211H549.177V294.75H573.185V216.211Z" fill="#480C6D"/>
<path d="M196.005 135.421H373.19C374.786 135.421 376.082 136.718 376.082 138.314C376.082 139.91 374.786 141.207 373.19 141.207H196.005C194.409 141.207 193.112 139.91 193.112 138.314C193.112 136.718 194.409 135.421 196.005 135.421Z" fill="#D5D5D6"/>
<path d="M752.165 403.858C752.165 404.778 751.422 405.521 750.502 405.521H1.66256C0.742611 405.521 0 404.778 0 403.858C0 402.938 0.742611 402.196 1.66256 402.196H750.502C751.422 402.196 752.165 402.938 752.165 403.858Z" fill="#2E2E41"/>
<path d="M148.19 67.2562L169.969 74.4163V43.0603H150.207L148.19 67.2562Z" fill="#F3A3A6"/>
<path d="M167.276 51.7389C179.261 51.7389 188.978 42.0226 188.978 30.0369C188.978 18.0513 179.261 8.33498 167.276 8.33498C155.29 8.33498 145.574 18.0513 145.574 30.0369C145.574 42.0226 155.29 51.7389 167.276 51.7389Z" fill="#F3A3A6"/>
<path d="M161.745 31.7328L164.738 35.3682L170.147 25.9027C170.147 25.9027 177.052 26.2574 177.052 21.1367C177.052 16.016 183.392 15.8719 183.392 15.8719C183.392 15.8719 192.358 0.210595 173.782 4.33375C173.782 4.33375 160.892 -4.5 154.485 3.04803C154.485 3.04803 134.834 12.9458 140.453 30.181L149.797 47.9372L151.914 43.9138C151.914 43.9138 150.628 27.0333 161.745 31.7328Z" fill="#2F2E43"/>
<path d="M159.739 364.289H142.204V389.161H159.739V364.289Z" fill="#F3A3A6"/>
<path d="M157.799 403.404C154.796 403.681 139.799 404.856 139.046 401.42C138.358 398.261 139.367 394.958 139.511 394.515C140.952 380.172 141.484 380.006 141.805 379.906C142.315 379.762 143.812 380.461 146.228 382.023L146.383 382.123L146.416 382.301C146.461 382.522 147.536 387.787 152.612 386.989C156.092 386.435 157.223 385.67 157.589 385.293C157.289 385.16 156.924 384.927 156.669 384.517C156.292 383.93 156.225 383.176 156.469 382.278C157.123 379.895 159.085 376.371 159.163 376.227L159.384 375.828L179.313 389.272L191.616 392.786C192.547 393.052 193.289 393.717 193.666 394.603C194.187 395.845 193.866 397.286 192.868 398.184C190.629 400.19 186.196 403.637 181.53 404.058C180.288 404.169 178.648 404.213 176.808 404.213C169.105 404.213 157.877 403.415 157.788 403.404H157.799Z" fill="#2F2E43"/>
<path d="M105.034 326.95L89.1805 346.114L102.691 357.291L118.545 338.127L105.034 326.95Z" fill="#F3A3A6"/>
<path d="M92.1391 367.038C89.6564 365.331 77.3424 356.686 78.9495 353.56C80.4347 350.69 83.3165 348.794 83.7155 348.539C93.968 338.409 94.4889 338.62 94.7993 338.753C95.2869 338.963 95.9852 340.459 96.8608 343.197L96.9162 343.363L96.8276 343.519C96.7167 343.718 94.1896 348.462 98.6121 351.078C101.649 352.873 103.012 352.995 103.522 352.94C103.378 352.652 103.245 352.23 103.3 351.754C103.378 351.067 103.81 350.435 104.586 349.903C106.615 348.484 110.361 347.021 110.527 346.954L110.948 346.788L117.732 369.854L124.969 380.405C125.512 381.203 125.667 382.19 125.39 383.121C125.002 384.406 123.839 385.315 122.486 385.371C119.483 385.493 113.874 385.315 110.006 382.666C108.986 381.968 107.69 380.959 106.271 379.785C100.341 374.874 92.1946 367.105 92.1281 367.038H92.1391Z" fill="#2F2E43"/>
<path d="M188.734 172.441H128.594L141.961 371.239H162.011L188.745 172.441H188.734Z" fill="#2F2E43"/>
<path d="M176.486 183.392L188.734 172.441L182.605 281.782L114.118 346.932L97.0382 332.823L136.951 281.039L176.486 183.392Z" fill="#2F2E43"/>
<path d="M176.486 55.5074L146.782 50.686L137.56 66.8128C125.834 87.3177 121.057 111.059 123.927 134.501L128.594 172.463H188.734L176.486 55.5185V55.5074Z" fill="#480C6D"/>
<path d="M152.368 208.241C153.598 214.371 151.304 219.968 147.259 220.744C143.202 221.509 138.924 217.164 137.693 211.023C137.172 208.574 137.261 206.047 137.959 203.642L133.082 177.584L145.829 175.6L149.276 201.502C150.85 203.486 151.914 205.792 152.368 208.252V208.241Z" fill="#F3A3A6"/>
<path d="M136.862 201.181L118.142 143.346V143.257L125.213 83.7044C126.299 74.5825 134.036 67.7106 143.213 67.7106C148.832 67.7106 154.042 70.2488 157.5 74.6823C160.958 79.1158 162.166 84.7796 160.803 90.2439L148.312 140.198L151.293 196.892L136.851 201.181H136.862Z" fill="#480C6D"/>
</g>
<defs>
<clipPath id="clip0_1_42">
<rect width="752.165" height="405.521" fill="white"/>
</clipPath>
</defs>
</svg>
