<svg width="20" height="24" viewBox="0 0 20 24" fill="none" xmlns="http://www.w3.org/2000/svg">
<path d="M10 12C11.5155 12 12.969 11.3979 14.0406 10.3263C15.1122 9.25467 15.7143 7.80122 15.7143 6.2857C15.7143 4.77017 15.1122 3.31672 14.0406 2.24509C12.969 1.17345 11.5155 0.571411 10 0.571411C8.48448 0.571411 7.03103 1.17345 5.95939 2.24509C4.88775 3.31672 4.28571 4.77017 4.28571 6.2857C4.28571 7.80122 4.88775 9.25467 5.95939 10.3263C7.03103 11.3979 8.48448 12 10 12ZM7.95982 14.1428C3.5625 14.1428 0 17.7053 0 22.1027C0 22.8348 0.59375 23.4286 1.32589 23.4286H18.6741C19.4062 23.4286 20 22.8348 20 22.1027C20 17.7053 16.4375 14.1428 12.0402 14.1428H7.95982Z" fill="white"/>
</svg>
