<svg width="20" height="18" viewBox="0 0 20 18" fill="none" xmlns="http://www.w3.org/2000/svg">
<path d="M19.9931 8.98261C19.9931 9.60761 19.4722 10.0972 18.8819 10.0972H17.7708L17.7951 15.6597C17.7951 15.7534 17.7882 15.8472 17.7778 15.9409V16.5C17.7778 17.2673 17.1562 17.8889 16.3889 17.8889H15.8333C15.7951 17.8889 15.7569 17.8889 15.7188 17.8854C15.6701 17.8889 15.6215 17.8889 15.5729 17.8889H14.4444H13.6111C12.8438 17.8889 12.2222 17.2673 12.2222 16.5V15.6666V13.4444C12.2222 12.8298 11.7257 12.3333 11.1111 12.3333H8.88889C8.27431 12.3333 7.77778 12.8298 7.77778 13.4444V15.6666V16.5C7.77778 17.2673 7.15625 17.8889 6.38889 17.8889H5.55556H4.44792C4.39583 17.8889 4.34375 17.8854 4.29167 17.8819C4.25 17.8854 4.20833 17.8889 4.16667 17.8889H3.61111C2.84375 17.8889 2.22222 17.2673 2.22222 16.5V12.6111C2.22222 12.5798 2.22222 12.5451 2.22569 12.5139V10.0972H1.11111C0.486111 10.0972 0 9.61108 0 8.98261C0 8.67011 0.104167 8.39233 0.347222 8.14928L9.25 0.388862C9.49306 0.145806 9.77083 0.111084 10.0139 0.111084C10.2569 0.111084 10.5347 0.180528 10.7431 0.35414L19.6111 8.14928C19.8889 8.39233 20.0278 8.67011 19.9931 8.98261Z" fill="white"/>
</svg>
